# xmcd CD database file
#
# Track frame offsets:
#	150
#	4942
#	26648
#	59249
#	102187
#	125398
#	148915
#	167222
#	188343
#	211247
#
# Disc length: 3096 seconds
#
# Revision: 0
# Processed by: cddbd v1.5.1PL0 Copyright (c) Steve Scherf et al.
# Submitted via: CDex 1.51
#
DISCID=8d0c160a
DTITLE=Yngwie J. Malmsteen's Rising Force - Jorn Lande On Vocal [CD2]
DYEAR=2000
DGENRE=Heavy Metal
TTITLE0=Opening
TTITLE1=Rising Force
TTITLE2=Crucify
TTITLE3=Guitar Solo-Paganini-Adagio-Farbeyond The Sun
TTITLE4=Masquerade
TTITLE5=Trilogy Suite Opus 5-Guitar Solo
TTITLE6=Red House
TTITLE7=BWV 1067: Badinerie-Guitar Solo-Band Intro
TTITLE8=I'll See The Light, Tonight
TTITLE9=Evil Eye
EXTD=YEAR: 2000
EXTT0=
EXTT1=
EXTT2=
EXTT3=
EXTT4=
EXTT5=
EXTT6=
EXTT7=
EXTT8=
EXTT9=
PLAYORDER=
